<svg width="141" height="190" viewBox="0 0 141 190" fill="none" xmlns="http://www.w3.org/2000/svg">
<g clip-path="url(#clip0_6_1054)">
<rect width="140.5" height="190" rx="12" fill="url(#paint0_linear_6_1054)"/>
<circle cx="70" cy="96" r="58" fill="white"/>
<path d="M96.8087 57.0525C97.063 56.4359 96.5544 55.8556 96.5544 55.8556C96.5544 55.8556 92.5586 49.1091 78.5003 47.5858C70.9444 46.7878 60.7004 48.3112 53.5078 52.1922C40.4304 59.1925 38.4688 70.7631 38.4688 70.7631C38.3961 71.0532 38.2871 71.9237 38.5777 72.2864C38.8684 72.6492 39.3043 72.6492 39.8492 72.4678C44.4626 70.9081 58.1576 66.3742 66.8032 64.0892C79.1178 60.8247 89.2529 58.8298 95.7189 57.7417C96.2275 57.6329 96.6271 57.4878 96.8087 57.0525Z" fill="#FAAF18"/>
<path d="M110.867 111.532C103.493 128.072 89.3618 139.569 70.7991 139.823C57.3221 140.005 45.4071 135.398 36.7978 127.346L31.6031 129.559V121.506C25.9362 113.889 22.6305 104.205 22.6305 93.2512C22.6305 65.141 44.172 43.0156 74.2501 43.0156C79.1542 43.0156 83.586 43.7773 86.928 44.539C81.7697 42.9068 76.6477 42 70.9444 42C38.6867 42 16.9636 68.1152 16.9636 95.0647C16.9636 124.408 40.0308 149 70.2906 149C99.2063 149 114.79 128.652 119.803 116.392L110.867 111.532Z" fill="#185494"/>
<path d="M103.384 105.728C107.634 105.257 110.576 103.552 112.175 101.956C113.628 100.505 113.991 98.5468 113.991 97.0597C114.064 94.8834 113.991 88.0644 113.991 88.0644L102.766 90.4946C102.766 90.4946 102.766 91.3288 102.766 93.1061C102.803 94.8471 103.638 95.7902 105.454 95.4637C106.036 95.3549 106.907 95.101 106.907 95.101V97.241C106.907 97.1685 107.089 98.438 104.256 98.982C100.55 99.5624 98.8793 97.2773 98.843 93.2512C98.9156 88.9349 101.35 86.4685 104.328 85.7793C107.67 85.0176 109.559 85.8156 110.649 85.9607C114.354 86.5047 115.408 80.9553 112.029 79.6495C109.523 78.6339 106.29 78.4525 103.202 79.0692C99.061 79.9034 90.9602 83.3492 90.9239 94.5569C90.8876 103.48 97.4626 106.381 103.384 105.728Z" fill="#ED1D21"/>
<path d="M66.8759 115.268C66.8759 115.268 70.3269 114.071 70.6175 113.998C73.3783 113.055 74.3954 111.387 74.3954 108.558C74.3591 105.475 74.3591 99.4536 74.3591 99.4536L82.3872 108.666C83.695 110.008 85.3296 110.117 86.819 109.682C88.3447 109.247 89.6525 107.832 89.6888 105.837C89.6888 99.1997 89.6888 82.9502 89.6888 82.9502C89.6888 82.9502 87.6182 83.3854 85.9109 83.8569C83.9492 84.401 82.4235 85.6705 82.4235 89.0075C82.4235 90.1681 82.4235 96.9508 82.4235 96.9508C82.4235 96.9508 77.8464 91.2563 74.904 88.3183C73.342 86.7586 70.7265 87.7017 70.7265 87.7017L66.8759 88.8624V115.268Z" fill="#EE1C23"/>
<path d="M64.442 89.4427C64.442 89.4427 62.0445 90.1319 60.0829 90.8573C57.54 91.7641 56.0507 93.2512 56.0507 97.0959C56.0507 100.651 56.0507 119.04 56.0507 119.04C56.0507 119.04 58.2666 118.278 60.3735 117.48C63.3159 116.356 64.442 114.833 64.442 111.749C64.442 109.102 64.442 89.4427 64.442 89.4427Z" fill="#ED1C23"/>
<path d="M52.4907 94.6658C50.2748 93.6502 48.3858 94.7746 47.5867 96.0078L40.7936 107.578V98.2566L32.7292 101.557L32.6929 127.89L38.3598 125.533C38.3598 125.533 39.4859 125.206 40.1398 124.154C40.7573 123.175 40.721 121.579 40.721 121.579V113.237L47.0418 119.947C48.4222 121.398 50.965 122.123 53.2172 120.309C55.2515 118.677 54.9246 115.884 53.7984 114.615L48.0589 108.848C48.0589 108.848 53.1082 100.868 53.9437 99.5624C55.0335 97.7488 54.4886 95.5725 52.4907 94.6658Z" fill="#EE1D23"/>
<path d="M49.3303 125.641C49.0397 126.331 49.7299 127.02 49.7299 127.02C52.636 130.683 65.6045 135.326 79.6991 131.916C101.204 126.729 105.745 111.532 106.254 109.392C106.363 108.957 106.435 108.267 106.036 107.832C105.709 107.469 105.2 107.469 104.546 107.615C89.5798 111.133 64.769 118.714 50.4201 124.843C49.8026 125.097 49.5483 125.206 49.3303 125.641Z" fill="#FAAF18"/>
<path d="M36.5798 91.1112C36.5435 89.6603 35.4174 88.8624 33.4921 89.8417V94.5207C33.4921 94.5207 34.1096 94.2305 34.5819 94.0129C35.7443 93.4688 36.6161 92.5258 36.5798 91.1112ZM33.4557 86.8675C33.819 86.7224 34.0733 86.6136 34.3639 86.4685C35.4174 85.9607 36.1802 84.9813 36.1802 83.7481C36.1802 82.3336 35.0178 81.9708 33.4557 82.7688C33.4557 82.8051 33.4557 86.8675 33.4557 86.8675ZM41.7381 90.422C41.8108 94.1217 39.159 96.0803 35.6716 97.4949L28.588 100.505V81.318C28.588 81.318 33.0562 79.5044 34.5092 78.9603C38.6504 77.4369 41.0843 79.2868 41.0843 82.0434C41.0843 83.8932 40.2851 85.4529 38.5777 86.8312C40.2487 87.1214 41.7018 88.4997 41.7381 90.422Z" fill="#EE1C23"/>
<path d="M55.1788 74.2451C55.1788 72.6129 54.0527 72.2139 52.7087 72.5766C51.6189 72.903 50.3475 73.3746 50.3475 73.3746V85.3078C50.3475 86.5047 50.1658 87.9919 48.6764 88.3546C47.5503 88.6447 47.0054 87.883 47.0054 86.6861V76.9291C47.0054 75.2969 45.8793 74.8254 44.5352 75.2607C43.0095 75.7685 42.1377 76.1312 42.1377 76.1312C42.1377 76.1312 42.1377 84.5824 42.1377 87.9556C42.1014 91.9092 44.8622 93.9041 49.0034 92.6708C52.6723 91.5827 55.1425 89.5153 55.1788 84.2559V74.2451Z" fill="#ED1D1F"/>
<path d="M94.6292 79.178C95.6826 78.9603 96.3365 78.1986 96.3365 76.8929C96.3365 75.7322 96.3365 74.8254 96.3365 74.8254L90.5969 76.0949V72.7217C90.5969 72.7217 93.4304 72.1414 94.1932 71.96C95.174 71.7424 95.6826 71.1983 95.6826 70.0739C95.6826 69.022 95.6826 68.1153 95.6826 68.1153L90.5969 69.2034V66.5193C90.5969 66.5193 93.2488 65.9753 94.6655 65.6851C95.7916 65.4675 96.1549 64.7058 96.1549 63.6539C96.1549 62.9647 96.1549 61.6227 96.1549 61.6227C93.612 62.058 88.7806 63.0373 85.7655 63.7264L85.7292 81.2092C85.7292 81.2092 91.4688 79.8671 94.6292 79.178Z" fill="#EE1C23"/>
<path d="M61.3543 78.4525C61.3543 78.4525 64.1878 76.9654 64.1878 74.6441C64.1514 72.6492 62.3351 73.0844 61.3906 73.4471L61.3543 78.4525ZM61.3906 81.1729C61.3906 81.1729 61.3906 84.5098 61.3906 85.8881C61.3906 87.1576 60.5188 88.0644 59.429 88.4997C59.429 88.4634 59.429 88.5359 59.429 88.4997C58.5209 88.8261 56.5592 89.479 56.5592 89.479V71.4522C56.5592 71.4522 60.5914 70.0376 62.9527 69.4936C66.5853 68.623 69.2008 70.2915 69.1644 73.2658C69.1281 76.0949 67.5661 77.7997 66.1494 78.9966L69.2734 81.9708C70.2179 82.9139 70.2906 84.5824 69.2371 85.598C68.5832 86.2146 66.8759 86.8312 65.5681 85.4529C65.5318 85.4529 61.3906 81.1729 61.3906 81.1729Z" fill="#EE1D23"/>
<path d="M102.112 68.7681C102.112 68.7681 104.909 67.7163 104.873 65.4675C104.837 63.5814 102.984 63.9078 102.076 64.1254L102.112 68.7681ZM97.3899 78.6339V61.3688C97.3899 61.3688 102.439 60.462 103.747 60.3169C107.38 59.8454 109.814 61.8766 109.741 64.7058C109.705 67.2085 108.143 68.7319 106.798 69.6386C106.798 69.6386 109.269 72.3953 109.923 73.1569C110.794 74.1363 110.758 75.841 109.45 76.6753C108.179 77.4732 106.871 77.0742 106.145 76.24L102.112 71.4522C102.112 71.4522 102.112 74.3902 102.112 75.6597C102.112 76.9292 101.35 77.8722 100.042 78.1261L97.3899 78.6339Z" fill="#EE1D23"/>
<path d="M84.6031 71.3797L77.4468 73.0119C77.4468 73.0119 77.4468 73.7736 77.4468 75.0068C77.4468 75.9498 78.1007 76.5302 79.0452 76.3488C79.6264 76.24 80.0987 76.1312 80.0987 76.1312V78.1261C80.0987 78.9241 78.9362 79.4319 77.7011 79.3956C75.9575 79.323 75.013 77.981 74.9767 75.442C75.013 72.1051 76.6113 70.1464 78.7546 69.6024C79.808 69.3122 80.7889 69.4573 81.5517 69.5661C83.4043 69.8563 84.4578 68.9858 84.4941 67.4624C84.5305 65.8302 83.0774 64.8146 79.9897 64.9234C73.233 65.141 69.782 70.0014 69.782 75.7685C69.782 81.6807 73.6689 84.2922 78.3913 83.458C81.0431 82.9139 82.3872 82.0434 83.2954 81.2454C84.2035 80.4475 84.6031 79.2505 84.6031 78.1986V71.3797Z" fill="#EE1D23"/>
<path d="M56.3776 52.0471C48.4585 55.5292 43.1185 63.8353 42.8279 67.3173C42.7189 68.6956 44.5716 68.9132 44.7532 67.4261C46.4242 61.0424 51.5099 55.0214 56.3776 52.0471Z" fill="white"/>
<path d="M82.5688 57.9956C86.819 56.9437 89.1802 56.7986 89.2165 54.8763C89.2892 51.6844 80.2076 47.9847 71.8526 48.6739C80.3529 49.2542 85.4386 52.5186 85.4386 54.7675C85.4749 56.2183 84.2035 57.4878 82.5688 57.9956Z" fill="white"/>
<path d="M85.1843 128.362C91.5777 125.859 97.7169 121.035 101.132 113.853C102.112 111.786 99.2789 110.698 98.4797 113.164C96.4818 118.278 92.4132 124.263 85.1843 128.362Z" fill="white"/>
<path d="M117.406 106.78H118.278C118.75 106.78 119.367 106.853 119.367 107.433C119.367 108.086 118.931 108.159 118.35 108.159H117.442L117.406 106.78ZM116.352 111.169H117.369V108.957H118.023L119.295 111.169H120.384L119.004 108.884C119.767 108.812 120.384 108.449 120.384 107.506C120.384 106.381 119.658 105.946 118.35 105.946H116.352V111.169ZM113.446 108.558C113.446 111.387 115.698 113.237 118.241 113.237C120.784 113.237 123.036 111.423 123.036 108.558C123.036 105.728 120.784 103.915 118.241 103.915C115.698 103.915 113.446 105.728 113.446 108.558ZM114.718 108.558C114.718 106.454 116.28 104.894 118.241 104.894C120.167 104.894 121.765 106.418 121.765 108.558C121.765 110.698 120.167 112.221 118.241 112.221C116.28 112.257 114.718 110.698 114.718 108.558Z" fill="#EE1D23"/>
</g>
<defs>
<linearGradient id="paint0_linear_6_1054" x1="120" y1="14" x2="24" y2="196" gradientUnits="userSpaceOnUse">
<stop offset="0.0730378" stop-color="#FDD601"/>
<stop offset="1" stop-color="#ECBC00"/>
</linearGradient>
<clipPath id="clip0_6_1054">
<rect width="140.5" height="190" fill="white"/>
</clipPath>
</defs>
</svg>
