<svg width="141" height="190" viewBox="0 0 141 190" fill="none" xmlns="http://www.w3.org/2000/svg">
<g clip-path="url(#clip0_53_451)">
<rect width="140.5" height="190" rx="12" fill="url(#paint0_radial_53_451)"/>
<circle cx="70" cy="96" r="58" fill="white"/>
</g>
<path d="M85.0017 127.76C85.0017 127.76 94.2619 124.754 99.8626 124.074C105.461 123.395 108.01 123.214 108.01 123.214C108.01 123.214 108.586 123.082 108.701 123.739C108.812 124.336 107.937 124.468 107.937 124.468C90.8342 129.892 78.7538 135.341 77.3239 135.967C75.9816 136.557 58.5949 144.619 58.5949 144.619C58.5949 144.619 56.4614 145.441 54.7184 145.104C52.9774 144.769 52.6225 143.936 52.4889 143.083C52.4889 143.083 51.9754 141.21 54.4971 140.309C56.8309 139.476 63.0579 136.535 63.0579 136.535L79.4302 129.683L85.0017 127.76Z" fill="#F5C323"/>
<path d="M111.113 84.7397C110.665 84.7525 110.141 85.1452 110.141 85.1452C103.92 83.777 96.8926 90.7115 96.4855 93.7894C96.1828 96.0301 96.794 97.6183 98.5516 98.006C100.309 98.396 101.908 97.721 103.284 97.1702C104.657 96.6149 107.381 94.3894 107.381 94.3894C107.648 95.1055 109.122 95.7948 110.466 95.8543C111.815 95.916 114.163 94.7628 114.559 94.4763C114.956 94.1921 114.945 93.6253 114.857 93.297C114.77 92.9687 113.086 92.7606 112.462 92.7011C111.84 92.6417 111.301 92.3134 111.043 91.5798C110.79 90.8483 111.682 88.5738 112.097 86.9742C112.508 85.3724 111.671 84.7879 111.203 84.7438C111.174 84.7411 111.143 84.7388 111.113 84.7397ZM91.6005 84.9011C91.2397 84.9105 91.0085 84.9507 91.0085 84.9507C91.0085 84.9507 83.3067 86.1283 82.8851 86.0556C82.4175 85.9762 82.2042 85.8481 81.8932 85.8569C81.5821 85.8591 81.1798 86.0769 80.9836 86.2707C80.3156 86.9405 80.7523 88.0956 80.7523 88.0956C80.8984 88.642 81.4941 89.2094 81.9951 89.4363C83.0514 89.9078 89.5775 89.0349 89.5775 89.0349L81.8971 95.6639C81.8971 95.6639 79.9683 97.1185 79.2899 99.086C78.6115 101.056 79.8116 101.133 79.9682 101.122C80.1185 101.109 81.3721 100.77 82.5557 100.675C83.7456 100.58 86.9759 100.727 88.1386 100.795C89.2993 100.861 92.0416 100.771 93.9058 99.9095C95.7678 99.0458 96.4337 98.1697 96.2542 97.5881C96.0747 97.0086 95.421 97.2133 95.2936 97.2529C95.1642 97.2904 94.9273 97.3175 93.894 97.4805C92.8607 97.6413 89.8348 97.1038 89.3109 97.0377C88.7869 96.9716 86.8997 96.7646 86.8997 96.7646C87.1293 96.6699 93.8038 89.4653 93.8038 89.4653C93.8038 89.4653 95.7958 87.2011 94.6977 85.9894C93.8065 85.0033 92.3942 84.8802 91.6005 84.9011ZM107.824 88.137C107.824 88.137 107.003 90.0896 106.867 90.4708C106.731 90.8541 106.683 91.4515 106.683 91.4515C106.683 91.4515 104.508 92.7683 103.499 93.1936C102.493 93.6166 101.229 93.5329 101.229 93.5329C102.492 89.0272 107.824 88.137 107.824 88.137ZM77.1179 89.0763C75.3356 89.0961 72.1806 89.2314 70.9156 89.4446C69.2247 89.7288 67.9963 89.5747 67.0381 89.5108C66.0779 89.4447 65.6855 90.3011 65.6855 90.3011C64.7378 92.4008 68.1947 92.8749 68.1947 92.8749C70.4575 93.1195 74.6362 92.2046 74.6362 92.2046C67.5053 98.3605 63.696 102.066 62.9529 103.311C62.4373 104.183 61.6788 105.727 62.6745 106.919C63.6703 108.111 65.9717 106.82 65.9717 106.82C68.8984 105.93 74.2598 106.009 74.2598 106.009C74.2598 106.009 77.0361 105.973 81.7873 106.154C86.5343 106.337 89.0585 104.602 89.7892 104.126C90.5177 103.652 90.5957 103.185 90.4204 102.876C90.2409 102.575 89.8182 102.404 89.3422 102.62C88.8621 102.838 87.0561 103.245 86.0019 103.381C84.9477 103.513 82.5886 103.292 78.1569 102.487C73.7251 101.688 69.9982 102.483 69.9982 102.483L75.5732 96.9012C75.5732 96.9012 79.0909 92.8449 79.5251 91.3687C79.9593 89.8925 78.9895 89.1744 78.3215 89.0928C78.1535 89.0725 77.712 89.0697 77.1179 89.0763ZM62.4981 89.8708C62.4189 89.8703 62.337 89.8802 62.2511 89.8915C61.5622 89.9818 61.4866 90.9839 61.4866 90.9839C56.5267 97.8735 55.9522 100.09 55.7038 102.152C55.4533 104.212 56.4149 106.821 57.9659 106.841C59.517 106.86 59.0363 105.442 59.0363 105.442C59.0175 105.1 60.3768 101.738 61.122 100.352C62.7315 97.3602 63.7187 94.2593 63.5684 92.1177C63.4369 90.2477 63.0526 89.8741 62.4981 89.8708ZM44.3145 90.446C41.3374 90.4797 38.5603 91.5533 37.1242 92.5398C34.5691 94.2892 35.4874 96.202 35.7442 96.4708C35.9988 96.7418 36.5867 97.0913 39.3276 95.9743C39.3276 95.9743 32.3034 104.381 28.9655 122.238C28.9655 122.238 28.4062 126.657 29.9927 126.86C31.5834 127.058 32.5365 124.546 33.0939 123.004C33.3318 122.34 43.6603 97.1566 41.7858 95.7839C41.7858 95.7839 48.2235 95.4073 48.929 100.025C49.6325 104.643 42.852 108.235 40.8605 108.649C38.8711 109.065 38.9104 109.919 39.0335 110.027C39.1588 110.137 39.5943 110.749 42.1661 110.333C44.7379 109.921 50.6558 108.03 53.2338 102.264C53.2338 102.264 55.711 96.7963 51.0893 92.7798C49.0682 91.0235 46.63 90.4197 44.3145 90.446ZM96.0425 103.857C95.5353 103.886 95.2388 104.3 95.2388 104.3C94.6689 104.868 91.5534 110.213 91.5534 110.213C91.5534 110.213 89.4699 110.617 89.0482 110.676C88.6307 110.736 88.1896 110.635 88.1896 110.635C87.4256 110.232 85.743 110.572 85.8412 112.145C85.9351 113.721 89.9107 113.701 89.9107 113.701L89.9029 113.751C89.9029 113.751 88.4142 117.936 88.0092 120.359C87.6105 122.785 87.8038 126.382 87.8289 126.624C87.8539 126.867 88.111 127.864 88.66 127.89C89.2111 127.917 89.4638 127.353 89.4638 127.353L91.6475 120.521L94.3135 112.923C95.3322 112.734 105.001 108.641 105.001 108.641C105.001 108.641 105.987 108.181 105.895 107.776C105.784 107.287 105.213 107.441 105.213 107.441L95.8308 109.282L97.1324 106.51C97.1324 106.51 97.8495 104.844 96.8579 104.13C96.5481 103.908 96.273 103.844 96.0425 103.857ZM67.1009 108.334C66.8504 108.334 66.3511 108.436 64.8544 111.082C63.3639 113.73 61.7885 119.577 61.7885 119.577L54.9902 121.096C54.9902 121.096 59.5609 108.814 57.2563 108.893C54.9538 108.972 49.3956 122.329 49.3956 122.329C49.3956 122.329 46.6757 122.688 45.0516 123.008C45.0516 123.008 43.8796 123.202 43.746 124.125C43.6166 125.048 44.0871 125.619 44.0871 125.619C44.6236 126.425 47.796 126.79 47.796 126.79C47.0883 129.092 46.1855 133.093 46.2042 134.325C46.2251 135.559 46.4178 137.62 47.8352 137.801C48.8706 137.933 50.1697 137.195 50.7835 136.063C51.3972 134.933 53.4651 126.181 53.4651 126.181C54.4045 126.08 60.5692 123.471 60.5692 123.471C60.5295 123.713 59.7445 126.624 59.6714 128.664C59.5921 130.707 60.4355 131.598 61.2788 131.66C62.1201 131.72 62.9998 131.073 63.7096 129.939C64.4172 128.808 66.2423 120.405 66.2423 120.405L68.8886 118.588C68.8886 118.588 69.5822 118.025 69.3317 117.595C69.0833 117.166 68.6416 117.384 68.6416 117.384L66.7715 118.137C66.7715 118.137 67.9616 110.841 68.1516 109.609C68.3415 108.373 67.3493 108.334 67.1009 108.334ZM83.775 112.17C83.3022 112.179 82.8772 112.518 82.8772 112.518C82.2071 113.084 80.7719 116.197 80.7719 116.197C79.605 118.257 73.7933 122.077 73.7933 122.077C74.5281 120.096 74.6587 118.217 74.546 117.078C74.4333 115.934 73.5376 114.26 72.2329 113.991C70.9282 113.722 69.6299 114.083 69.3356 114.438C69.0371 114.79 69.1346 115.147 69.7943 115.493C70.4477 115.839 70.7627 116.602 70.7627 116.602C70.9004 116.904 70.7443 117.42 70.7235 117.512C70.7047 117.603 69.5473 121.29 69.5473 121.29C69.5473 121.29 68.5126 124.847 69.9864 125.995C71.4602 127.15 72.4806 127.027 74.8165 125.917C77.1545 124.802 79.925 120.583 79.925 120.583C79.8478 123.414 81.3826 124.824 82.2656 125.573C83.1445 126.32 83.7789 126.119 83.7789 126.119C84.6599 125.573 84.1053 124.764 84.0259 124.601C83.9529 124.44 83.9676 119.469 84.4102 116.9C84.8506 114.335 84.7905 113.064 84.7905 113.064C84.5402 112.357 84.1428 112.164 83.775 112.17Z" fill="black"/>
<path d="M67.3561 78.4154C67.3561 78.4154 68.0659 78.0409 68.3623 78.3626C68.6608 78.6886 68.4834 79.1756 68.2516 79.6206C68.022 80.0657 64.7551 85.3887 63.6445 86.4265C62.9536 87.0698 61.9599 87.18 61.1813 86.6953C60.4026 86.2106 60.5028 84.6176 60.7847 83.9456C61.0644 83.2736 61.9975 81.3832 63.9117 80.134C65.828 78.8825 67.3561 78.4154 67.3561 78.4154Z" fill="#018E66"/>
<path d="M109.912 71.3651L108.532 70.3582C104.628 67.126 88.7863 60.4986 88.7863 60.4986C88.7863 60.4986 87.6778 57.8415 87.039 56.5482C85.2521 52.9238 82.5718 50.0706 82.4424 49.9737C82.3171 49.8767 82.1898 49.8833 82.1898 49.8833L82.0604 49.9098L77.4136 51.2251L66.7402 54.4881C66.7402 54.4881 59.4381 56.9007 59.0937 57.0417C58.7493 57.1805 58.4988 57.4229 58.4988 57.4229C58.4988 57.4229 56.0105 61.9528 55.8017 62.4749C55.5888 63.0015 52.7164 68.8644 52.7164 68.8644L45.5939 72.4204C44.9509 72.7862 44.9321 72.7531 40.0223 75.8972L34.05 80.3037C34.05 80.3037 28.3929 84.8094 27.9211 85.2632C27.4493 85.7171 26.9316 86.6711 27.4201 87.5105C27.9065 88.35 29.1318 88.198 29.1318 88.198L35.21 86.3708L46.7872 83.1575L59.9976 80.281L61.8847 80.1847C62.2876 79.7881 62.751 79.4026 63.2771 79.0544C65.1078 77.8603 66.615 77.3271 66.951 77.2191C67.6608 76.8864 68.5918 76.7917 69.2243 77.4813C69.4894 77.7677 69.7253 78.1974 69.717 78.8033L70.481 78.6667L70.5186 78.6579L85.1248 76.6639C85.1248 76.6639 94.4705 75.6592 97.5809 75.5601C105.165 75.3177 108.801 74.1192 108.801 74.1192C109.106 73.9848 110.129 73.6036 110.331 72.7245C110.53 71.841 109.912 71.3651 109.912 71.3651Z" fill="#DA0021"/>
<path d="M84.6454 49.1904C84.6296 49.1908 84.6151 49.1948 84.5984 49.2028C84.4648 49.2667 84.5239 49.4387 84.5239 49.4387L85.9863 56.9781C85.9863 56.9781 86.5393 60.9438 86.8566 61.6995C87.1802 62.4552 89.4325 63.243 89.4325 63.243C93.9122 64.3754 111.152 70.923 111.152 70.923C111.152 70.923 112.252 71.3545 112.45 71.3699C112.653 71.3898 113.263 71.2745 113.505 70.6334C113.749 69.99 113.235 69.4625 113.191 69.4251C113.149 69.3876 112.701 69.1561 112.701 69.1561C107.9 66.5409 98.5073 63.0692 98.0459 62.9326C97.5888 62.8004 88.9149 60.1312 88.9149 60.1312C88.9149 60.1312 86.3446 52.6787 86.1901 52.1697C86.0378 51.6564 84.8415 49.3476 84.8415 49.3476C84.8415 49.3476 84.7565 49.1877 84.6454 49.1904ZM80.6386 49.9228C80.5544 49.9221 80.5014 49.9311 80.5014 49.9311L75.9849 51.1477C75.9849 51.1477 58.5668 56.4176 57.8758 56.6512C57.187 56.8847 57.0172 57.4126 57.0172 57.4126C55.2303 60.583 52.5115 66.5238 52.3988 66.872C52.284 67.2223 52.4068 67.3612 52.5321 67.414C52.6573 67.4691 52.7598 67.4401 52.7869 67.3851C52.8182 67.3278 58.4953 58.5836 58.4953 58.5836L70.2609 55.6456C70.2609 55.6456 80.7432 52.1716 80.9248 52.1077C81.1044 52.0438 81.9609 51.6493 81.6541 50.7173C81.4255 50.0183 80.8913 49.925 80.6386 49.9228ZM51.9126 69.1023C51.8275 69.104 51.7676 69.123 51.7676 69.123C51.7676 69.123 51.1417 69.3859 49.3486 70.1989C45.8646 71.772 40.2607 75.3176 40.2607 75.3176C35.8457 77.9064 26.5779 85.8404 26.5779 85.8404C26.5779 85.8404 25.6587 86.4879 26.1388 87.6777C26.6148 88.8718 27.8639 88.7122 27.8639 88.7122L41.3232 84.8928C42.3189 84.4059 59.8792 80.6266 59.8792 80.6266L61.7885 80.2831C62.2144 79.8513 62.7043 79.4309 63.2784 79.0541C65.1091 77.86 66.6158 77.329 66.9519 77.221C67.6617 76.8883 68.5933 76.7921 69.2259 77.4817C69.5014 77.7814 69.7451 78.229 69.7159 78.8679L70.4844 78.7314L70.504 78.7272C80.5031 76.9007 102.508 75.3589 102.508 75.3589C103.311 75.2267 105.489 74.4735 105.079 72.1975C104.762 70.4239 101.908 70.3165 101.488 70.3561C101.064 70.398 72.62 74.3584 70.7392 74.6844C60.4353 76.4603 42.766 81.148 42.766 81.148L31.9256 84.5204C32.1302 84.0776 40.8 77.622 41.3114 77.221C41.8229 76.8134 51.8656 70.2982 51.8656 70.2982C51.8656 70.2982 52.6631 69.9641 52.4106 69.4375C52.2709 69.1497 52.0546 69.0995 51.9126 69.1023Z" fill="black"/>
<defs>
<radialGradient id="paint0_radial_53_451" cx="0" cy="0" r="1" gradientUnits="userSpaceOnUse" gradientTransform="translate(72 102.25) rotate(91.0991) scale(104.269 77.1043)">
<stop stop-color="#E33853"/>
<stop offset="1" stop-color="#C10B28"/>
</radialGradient>
<clipPath id="clip0_53_451">
<rect width="140.5" height="190" fill="white"/>
</clipPath>
</defs>
</svg>
