<svg width="141" height="190" viewBox="0 0 141 190" fill="none" xmlns="http://www.w3.org/2000/svg">
<rect x="0.5" width="140.5" height="190" rx="12" fill="url(#paint0_linear_53_404)"/>
<path d="M71.7102 26.0002C71.5781 25.9992 71.4421 26.0033 71.3105 26.0049C67.2926 26.0503 63.2272 27.0581 59.4808 28.9651C59.4808 28.9651 60.0635 28.8054 60.4614 28.8091C60.518 28.8096 60.5693 28.8101 60.6162 28.8184C61.0019 28.8845 61.3678 29.0973 61.6785 29.3509C62.1175 29.7088 62.2767 30.3953 62.7491 30.7C63.1329 30.9475 63.6168 30.9883 64.065 31.012C65.0271 31.0637 65.9708 30.6969 66.933 30.6448C67.9048 30.5921 68.8896 30.5523 69.8527 30.7C71.2761 30.918 72.6869 31.323 74.011 31.9206C75.5708 32.6251 77.0237 33.6055 78.3928 34.6695C79.7344 35.7124 80.9158 36.9758 82.1126 38.2035C83.8442 39.9799 85.2352 42.1399 87.1096 43.7432C87.8791 44.4013 88.668 44.9591 89.6383 45.3863C91.0239 45.9968 94.0245 46.4374 94.0245 46.4374L95.2799 46.7726C95.9323 46.8883 96.5242 47.0479 97.0474 47.2452L97.0774 47.2545C97.5555 47.4374 97.9756 47.6559 98.3328 47.9064C97.3629 44.4891 95.6826 41.2309 93.8304 38.3192C89.1892 31.0213 80.0398 26.0622 71.7102 26.0002Z" fill="#BD61F8"/>
<path d="M54.8406 31.9347C52.2952 33.9297 50.0851 36.3707 48.3041 39.1541C45.5034 43.5363 43.4707 48.8941 43.4707 54.2349V79.0548C43.4688 79.6028 43.7558 79.8807 44.1202 79.8807H51.1726C50.2419 79.3931 49.5803 78.7443 49.2159 77.9623C46.5037 72.1442 55.1779 61.8769 68.6656 53.9963C69.243 53.5449 69.7879 53.0697 69.771 52.8858C69.7492 52.6534 68.8766 53.0325 68.8766 53.0325C62.4413 55.7546 56.7672 60.0437 51.5728 64.6898C51.5728 64.6898 50.5332 59.709 50.0933 57.255C49.8223 55.7411 49.4632 54.2375 49.3364 52.7024C49.2198 51.2882 49.3364 48.4432 49.3364 48.4432C49.3364 48.4432 49.3993 45.5807 49.801 44.184C50.2216 42.7217 51.8051 39.9661 51.8051 39.9661C51.8051 39.9661 53.0959 38.0286 54.1059 36.9506C54.3624 36.6769 54.6223 36.1454 54.6305 35.7389C54.6373 35.4047 54.4326 35.2012 54.3595 34.8763C54.2646 34.4532 54.1693 33.9434 54.1833 33.5085C54.1905 33.1914 54.2623 32.8798 54.3939 32.5953C54.4911 32.3789 54.6905 32.1196 54.8406 31.9347Z" fill="#682A8F"/>
<path d="M99.2015 54.193C97.1049 59.7446 90.0206 67.2987 79.7649 73.1705C73.8334 76.5666 68.4507 78.7262 63.9014 79.8801H98.5738C98.9948 79.8801 99.2146 79.6621 99.2146 79.0676C99.2083 71.6529 99.2029 62.8607 99.2015 54.193Z" fill="#682A8F"/>
<path d="M91.143 53.6376C87.3826 53.6309 79.7964 56.4583 71.8094 61.2836C60.0742 68.3729 54.7854 75.4409 56.819 76.7545C59.5297 78.5049 68.2349 77.7085 80.397 70.2143C85.3881 67.1389 94.7916 59.6995 93.5599 54.7936C93.3629 54.01 92.5029 53.6402 91.143 53.6376ZM73.0392 62.3575C73.0392 62.3575 75.6797 67.7463 71.5946 71.0588C66.011 75.5861 61.8934 70.7649 61.8934 70.7649C64.6419 67.6451 68.518 64.6529 73.0392 62.3575Z" fill="#682A8F"/>
<path d="M53.6782 121.383C54.2901 121.383 54.7587 121.243 55.0867 120.964C55.2507 120.819 55.3805 120.634 55.4658 120.425C55.5511 120.215 55.5893 119.987 55.5774 119.759V119.708C55.5859 119.488 55.5483 119.268 55.4671 119.065C55.386 118.863 55.2634 118.683 55.1088 118.539C54.7973 118.25 54.3067 118.107 53.6396 118.107H49.9321V121.38H53.6782V121.383ZM52.4184 114.659C53.0304 114.659 53.4962 114.531 53.816 114.278C54.1357 114.025 54.2956 113.635 54.2956 113.112V113.061C54.3074 112.848 54.273 112.635 54.195 112.438C54.117 112.242 53.9976 112.068 53.8463 111.93C53.5459 111.669 53.0993 111.538 52.5011 111.538H49.9293V114.659H52.4184ZM46.0758 107.577H53.3998C54.2984 107.577 55.0674 107.714 55.7042 107.985C56.3437 108.256 56.8481 108.461 57.2699 108.913C57.5566 109.267 57.9121 109.574 58.1244 110.184C58.287 110.657 58.3725 111.386 58.3725 111.996V112.136C58.3725 113.168 58.0058 113.963 57.5924 114.596C57.1761 115.23 56.5807 115.313 55.9412 115.653C57.1568 115.861 58.4662 116.923 58.9761 117.592C59.4861 118.262 59.7397 119.196 59.7397 120.395V120.446C59.7397 121.984 59.2683 123.186 58.3228 124.049C57.3773 124.912 55.1529 125.343 53.4383 125.343H46.073V107.577H46.0758Z" fill="white"/>
<path d="M61.2999 107.577H73.7262V111.288H65.3023V114.567H72.4802V118.045H65.3023V121.559H73.9136V125.343H61.2999V107.577Z" fill="white"/>
<path d="M75.6528 107.577H79.9391V121.58H87.4285V125.343H75.6528V107.577Z" fill="white"/>
<path d="M89.0798 107.577H93.3661V121.58H100.856V125.343H89.0798V107.577Z" fill="white"/>
<path d="M45.9771 90.4806H41V86.7761H55.339V90.4806H50.2157V104.594H45.9771V90.4806Z" fill="white"/>
<path d="M62.9305 98.3969L60.8916 92.3051L58.72 98.3969H62.9305ZM59.3506 86.7018H62.7897L69.5822 104.594H65.1142L64.1496 101.972H57.5764L56.5562 104.594H52.4246L59.3506 86.7018Z" fill="white"/>
<path d="M92.9748 86.475C91.8147 86.5148 90.5438 86.849 89.5691 87.3009C88.5295 87.7828 87.6758 88.3908 86.9073 89.2286C86.1387 90.0659 85.737 90.9946 85.3078 92.12C84.8785 93.2455 84.7618 94.4403 84.7618 95.7088V95.7641C84.7618 97.0327 84.8785 98.2222 85.3078 99.3395C85.737 100.456 86.326 101.429 87.0796 102.258C87.8331 103.087 88.7318 103.745 89.7714 104.227C90.811 104.71 91.9396 104.948 93.1601 104.948C94.3802 104.948 95.5093 104.71 96.5489 104.227C97.5655 103.761 98.4873 103.088 99.2625 102.245C100.031 101.408 100.631 100.428 101.06 99.3033C101.489 98.1783 101.58 96.979 101.58 95.7099V95.6593C101.58 94.3902 101.489 93.2006 101.06 92.0839C100.631 90.9672 100.037 89.9941 99.2838 89.165C98.5307 88.336 97.6359 87.678 96.5963 87.1961C95.5567 86.7142 94.4243 86.4755 93.2037 86.4755C93.1263 86.475 93.0522 86.4724 92.9748 86.475ZM93.1553 90.3716C93.8019 90.3716 94.3938 90.5157 94.9271 90.8076C95.456 91.0971 95.9253 91.4967 96.3074 91.9827C96.702 92.4834 97.0066 93.0576 97.2061 93.6763C97.4161 94.3168 97.5202 94.9935 97.5202 95.7094V95.7693C97.5202 96.4852 97.4161 97.1618 97.2061 97.8023C96.9961 98.4428 96.7047 99.0063 96.333 99.4867C95.9612 99.9662 95.4979 100.356 94.974 100.629C94.4407 100.912 93.8532 101.051 93.2066 101.051C92.5605 101.051 91.9681 100.907 91.4348 100.615C90.9082 100.328 90.4426 99.9279 90.0671 99.4402C89.6795 98.9366 89.3795 98.363 89.1814 97.7465C88.9696 97.0911 88.8634 96.4021 88.8673 95.7088V95.6536C88.8673 94.9372 88.9666 94.261 89.1684 93.6205C89.3702 92.9801 89.6615 92.4165 90.0414 91.9362C90.4168 91.4605 90.8792 91.0717 91.4004 90.7936C91.926 90.5111 92.5087 90.3716 93.1553 90.3716Z" fill="white"/>
<path d="M68.9288 95.7325C68.9288 93.4624 69.4854 90.9252 70.9407 89.2698C72.532 87.4604 75.083 86.4796 77.4079 86.4796C81.9582 86.4796 84.0591 89.839 84.0591 89.839L80.8238 92.3312C80.8238 92.3312 79.9556 91.279 79.3888 90.9552C78.8134 90.6262 78.1416 90.3705 77.4917 90.4361C76.2784 90.5585 74.991 91.1231 74.1833 92.0977C73.4259 93.012 73.0643 94.357 73.1127 95.5765C73.1776 97.2113 73.7642 99.0098 74.9126 100.094C75.551 100.696 76.6399 100.847 77.3697 100.847C78.4523 100.847 79.0399 100.62 79.7779 100.224C80.2769 99.9566 81.0672 99.0816 81.0672 99.0816L84.4487 101.678C84.4487 101.678 81.9137 104.897 77.4917 104.897C75.5471 104.897 73.4292 104.401 72.0737 103.177C70.0686 101.368 68.9288 99.8926 68.9288 95.7325Z" fill="white"/>
<defs>
<linearGradient id="paint0_linear_53_404" x1="120.5" y1="14" x2="24.5" y2="196" gradientUnits="userSpaceOnUse">
<stop offset="0.0730378" stop-color="#9D16F1"/>
<stop offset="1" stop-color="#CEA9FE"/>
</linearGradient>
</defs>
</svg>
